
<svg aria-hidden="true" style="position:absolute;width:0;height:0" xmlns="http://www.w3.org/2000/svg" overflow="hidden">   
    <defs>
        <symbol id="antenna" viewBox="0 0 64 64">
             <path fill="#2E2F42" d="M61.55 44.2 44.66 27.19l1.87-9.24c.49.2 1 .3 1.52.3h.01a4.32 4.32 0 1 0-4.01-2.88l-9.92 1.22L17.95.32a1.07 1.07 0 0 0-1.5-.01l-3.03 3c-.42.42-.42 1.1 0 1.52l1.63 1.65a29.88 29.88 0 0 0 5.04 35.32c.08.09.18.15.29.2-.07.36-.1.73-.1 1.1v12.37H7.47a5.34 5.34 0 0 0-5.34 5.33v2.13c0 .6.48 1.07 1.07 1.07h49.06c.6 0 1.07-.48 1.07-1.07V60.8a5.34 5.34 0 0 0-5.33-5.33H35.2v-5.49a29.7 29.7 0 0 0 20.18-2.93l1.63 1.65c.2.2.47.32.75.32s.55-.11.75-.3l3.03-3.02c.41-.41.41-1.09 0-1.5ZM46.56 12.47a2.13 2.13 0 1 1 1.5 3.64 2.13 2.13 0 0 1-1.5-3.64Zm-2.51 7-1.2 5.9L40.5 23l3.55-3.52Zm-1.21-1.8L39 21.5l-2.97-2.99 6.8-.83ZM48 57.6a3.2 3.2 0 0 1 3.2 3.2v1.07H4.27V60.8a3.2 3.2 0 0 1 3.2-3.2h40.54Zm-14.94-4.27v2.14H22.41v-2.14h10.66ZM22.41 51.2v-8.1c0-2.6 2.4-4.7 5.33-4.7 2.94 0 5.33 2.1 5.33 4.7v8.1H22.41Zm12.8-3.4v-4.7c0-3.77-3.35-6.83-7.47-6.83a7.6 7.6 0 0 0-6.56 3.57 27.74 27.74 0 0 1-4.56-31.78l37.2 37.42a27.64 27.64 0 0 1-18.61 2.33Zm22.58-1.36-1.5-1.51-39.1-39.34-1.52-1.51 1.51-1.5 15.87 15.95.02.02L59.3 44.94l-1.51 1.5Z"/>
             <path fill="#4D5AE5" d="M27.75 40.53a3.2 3.2 0 0 0-.02 6.4h.01a3.2 3.2 0 0 0 .01-6.4Zm.75 3.96a1.07 1.07 0 1 1-.76-1.82 1.07 1.07 0 0 1 .75 1.82Z"/>
        </symbol>

        <symbol id="clock" viewBox="0 0 64 64">
            <path fill="#2E2F42" d="M62.6 30.6a30.6 30.6 0 1 0-39.93 29.17 1.35 1.35 0 0 0 1.06-.13c.27-.16.47-.42.57-.72l7.73-24.5a3.83 3.83 0 1 0-1.68-7.26L20.14 16.94a1.28 1.28 0 0 0-1.8 1.8l10.2 10.22a3.75 3.75 0 0 0 1.07 4.62l-7.36 23.35a28.09 28.09 0 1 1 21.14-.7l-.8-3.75a1.27 1.27 0 0 0-2.1-.69l-7.67 6.85a1.27 1.27 0 0 0 .46 2.17l9.8 3.13a1.27 1.27 0 0 0 1.64-1.48l-.78-3.68A30.5 30.5 0 0 0 62.59 30.6Zm-30.62-1.27a1.28 1.28 0 1 1 0 2.55 1.28 1.28 0 0 1 0-2.55Zm4.2 29.73 4.37-3.9 1.2 5.68-5.56-1.78Z"/>
            <path fill="#4D5AE5" d="M30.7 6.37v2.55a1.28 1.28 0 1 0 2.56 0V6.37a1.28 1.28 0 0 0-2.55 0ZM7.75 29.33a1.28 1.28 0 0 0 0 2.55h2.55a1.28 1.28 0 1 0 0-2.55H7.75ZM56.22 31.88a1.28 1.28 0 1 0 0-2.55h-2.55a1.28 1.28 0 0 0 0 2.55h2.55Z"/>
        </symbol>

        <symbol id="diagram" viewBox="0 0 64 64">
            <path fill="#4D5AE5" d="M29.85 29.93h2.13v9.6h-2.13v-9.6ZM38.38 34.2h2.13v5.32h-2.13V34.2ZM21.32 37.4h2.13v2.12h-2.13V37.4ZM14.93 36.33h2.13v3.2h-2.13v-3.2Z"/>
            <path fill="#2E2F42" d="M3.2 56.58h51.17a3.2 3.2 0 0 0 3.2-3.2v-4.26a3.2 3.2 0 0 0-3.2-3.2h-1.06V19.33l6.05-5.73a3.22 3.22 0 1 0-1.5-1.53l-4.55 4.33v-2.46a3.2 3.2 0 0 0-3.2-3.2H7.46a3.2 3.2 0 0 0-3.2 3.2v31.98H3.2a3.2 3.2 0 0 0-3.2 3.2v4.26a3.2 3.2 0 0 0 3.2 3.2Zm57.57-46.9a1.07 1.07 0 1 1 0 2.13 1.07 1.07 0 0 1 0-2.14ZM6.4 13.93c0-.6.47-1.07 1.06-1.07h42.65c.59 0 1.06.48 1.06 1.07v4.47l-2.13 2.03v-4.37c0-.59-.48-1.07-1.07-1.07H9.6c-.58 0-1.06.48-1.06 1.07v26.65c0 .6.48 1.07 1.06 1.07h38.38c.6 0 1.07-.48 1.07-1.07V23.37l2.13-2.02v24.57H6.4V13.94ZM16 27.8a3.2 3.2 0 1 0 2.2 5.5l3.71 1.85c.43.22.95.12 1.27-.24l7.88-8.86 7.75 5.8c.41.3 1 .28 1.37-.08l6.73-6.38v16.27H10.66V17.14h36.25v5.32l-7.54 7.14-7.81-5.85a1.07 1.07 0 0 0-1.44.14l-7.99 8.99-2.98-1.5.04-.38a3.2 3.2 0 0 0-3.2-3.2Zm1.06 3.2a1.07 1.07 0 1 1-2.13 0 1.07 1.07 0 0 1 2.13 0Zm6.4 17.05h10.66v1.07c0 .59-.48 1.07-1.07 1.07h-8.53c-.59 0-1.07-.48-1.07-1.07v-1.07ZM2.12 49.12c0-.59.48-1.07 1.07-1.07h18.12v1.07a3.2 3.2 0 0 0 3.2 3.2h8.53a3.2 3.2 0 0 0 3.2-3.2v-1.07h18.12c.59 0 1.07.48 1.07 1.07v4.26c0 .6-.48 1.07-1.07 1.07H3.2c-.59 0-1.07-.48-1.07-1.07v-4.26Z"/>
        </symbol>

        <symbol id="astronaut" viewBox="0 0 64 64">
            <path fill="#4D5AE5" d="M63.95 9.05a1.07 1.07 0 0 0-.86-.73l-3.82-.55-1.71-3.47c-.36-.73-1.56-.73-1.92 0l-1.7 3.47-3.83.55a1.07 1.07 0 0 0-.59 1.82l2.77 2.7-.66 3.8a1.07 1.07 0 0 0 1.55 1.13l3.42-1.8 3.42 1.8a1.07 1.07 0 0 0 1.55-1.13l-.66-3.8 2.77-2.7c.29-.28.4-.7.27-1.1Zm-4.93 2.65c-.25.25-.36.6-.3.95l.38 2.22-2-1.05a1.06 1.06 0 0 0-1 0l-2 1.05.38-2.22c.06-.35-.05-.7-.3-.95l-1.62-1.58 2.23-.32c.35-.05.65-.27.8-.59l1-2.02 1 2.02c.16.32.46.54.81.59l2.24.32-1.62 1.58Zm-6.75 29.34h-2.14v2.14h2.14v-2.14Zm0 4.27h-2.14v2.13h2.14v-2.13Zm2.13-2.13h-2.13v2.13h2.13v-2.13Zm-4.27 0H48v2.13h2.13v-2.13Zm-5.33 9.6h-2.13v2.13h2.13v-2.13Zm0 4.26h-2.13v2.14h2.13v-2.14Zm2.13-2.13H44.8v2.13h2.13v-2.13Zm-4.26 0h-2.14v2.13h2.14v-2.13ZM32 48.51h-2.13v2.13H32v-2.13Zm0 4.27h-2.13v2.13H32v-2.13Zm2.13-2.14H32v2.14h2.13v-2.14Zm-4.26 0h-2.14v2.14h2.14v-2.14Zm-18.14-38.4H9.6v2.14h2.13v-2.14Zm0 4.27H9.6v2.13h2.13v-2.13Zm2.14-2.13h-2.14v2.13h2.14v-2.13Zm-4.27 0H7.47v2.13H9.6v-2.13Z"/>
            <path fill="#2E2F42" d="M49.43 28.32a3.55 3.55 0 0 0-2.38-1.41 3.55 3.55 0 0 0-2.68.7l-2.5 1.92-3.8 2.84-2.71-1.08a13.87 13.87 0 0 0 8.23-12.64c0-7.65-6.25-13.87-13.93-13.87a13.91 13.91 0 0 0-13.92 13.87c0 2.77.83 5.34 2.24 7.51l-5.53-.05-.05.01c-.1 0-.21.03-.31.07l-.08.02c-.01 0-.03 0-.04.02L5.5 29.42l-3.78 1.82a3.56 3.56 0 0 0 3.55 6.18l2.77-1.47 4.53-2.34 2.71-.02L4.4 44.42 1.71 47.1a3.3 3.3 0 0 0 0 4.72 3.33 3.33 0 0 0 4.71 0l2.63-2.62 3.48-2.6 1.8 1.8-3.52 3.5-2.68 2.67a3.3 3.3 0 0 0 0 4.71 3.34 3.34 0 0 0 4.72 0l2.68-2.66 4.29-4.27 2.02-2-.01-.01.04-.03 10.34-11.32 6.94.99a1.01 1.01 0 0 0 .52-.07l.1-.04.12-.06 6.42-4.27c.03-.01.04-.04.06-.05.03-.02.06-.03.08-.06L49 33.05a3.56 3.56 0 0 0 .42-4.72ZM4.26 35.54c-.35.19-.74.22-1.12.1a1.43 1.43 0 0 1-.42-2.52l2.63-1.26.63 1.85.26.78-1.98 1.05Zm7-3.66-3.1 1.6L7.65 32l-.37-1.07 4.05-2-.07 2.96Zm30.2-13.24c0 1.84-.44 3.57-1.2 5.12l-8.37-3.8a3.72 3.72 0 0 0-1.57-2.77l2.92-9.72a11.76 11.76 0 0 1 8.21 11.17Zm-23.58 0A11.78 11.78 0 0 1 31.16 7.01l-2.87 9.51h-.11a3.74 3.74 0 0 0-3.75 3.72 3.74 3.74 0 0 0 6.98 1.85l7.73 3.5a11.78 11.78 0 0 1-21.26-6.95Zm11.9 1.6a1.6 1.6 0 0 1-3.22 0c0-.88.73-1.6 1.62-1.6.89 0 1.6.72 1.6 1.6ZM4.94 50.3a1.2 1.2 0 0 1-1.7 0 1.19 1.19 0 0 1 0-1.68l1.92-1.92 1.7 1.7-1.92 1.9Zm6.43 7.47c-.48.47-1.24.47-1.71 0a1.19 1.19 0 0 1 0-1.69l1.92-1.92.8.8.9.9-1.91 1.9Zm6.96-6.94-3.53 3.52-.8-.8-.9-.9 3.52-3.5c.08-.08.13-.18.18-.28l.06-.08c.03-.08.03-.17.05-.25l.02-.15a.65.65 0 0 0-.04-.2c0-.07 0-.14-.03-.2a1 1 0 0 0-.19-.28c-.02-.02-.02-.05-.05-.07l-3.21-3.2c-.04-.04-.08-.05-.12-.08a1.03 1.03 0 0 0-.17-.12 1 1 0 0 0-.19-.06 1.02 1.02 0 0 0-.2-.04h-.2l-.2.05a.99.99 0 0 0-.2.09c-.03.02-.08.03-.11.06l-3.55 2.64-1.8-1.8 4.8-4.76 8.72 8.57-1.86 1.84ZM31.96 36.8h-.1a1.04 1.04 0 0 0-.6.15l-.16.13-.08.06-9.4 10.29-8.65-8.52 5.67-5.63a1.07 1.07 0 0 0-.76-1.82l-4.44.02.05-3.21 6.21.05a13.9 13.9 0 0 0 12.52 3.96c.08.06.16.12.26.17l4.82 1.92.3 1.51.36 1.77-6-.85Zm8.08.35-.63-3.11 2.9-2.16.75 1 1.14 1.51-4.16 2.76Zm7.5-5.66-1.67 1.57-1.86-2.47 1.66-1.27a1.44 1.44 0 0 1 1.88 2.18Z"/>
            <path fill="#2E2F42" d="m27.2 37.09-4.28-4.27a1.07 1.07 0 0 0-1.5 0l-4.3 4.27a1.07 1.07 0 0 0 0 1.51l4.3 4.27a1.07 1.07 0 0 0 1.5 0l4.28-4.27a1.07 1.07 0 0 0 0-1.51Zm-5.03 3.52-2.78-2.77 2.78-2.76 2.77 2.76-2.77 2.77Zm12.16-30.47-.52 2.07c.15.04 3.48.9 3.48 4.3h2.13c0-4.03-3.33-5.93-5.1-6.37Zm5.09 8.5H37.3v2.14h2.13v-2.14Z"/>
         </symbol>

            <!-- Instagram icon -->
        <symbol id="instagram" viewBox="0 0 16 16">
            <path fill="#fff" d="M15.98 4.7a5.85 5.85 0 0 0-.37-1.94 3.9 3.9 0 0 0-.92-1.42c-.4-.4-.89-.72-1.42-.92a5.8 5.8 0 0 0-1.94-.37A54.6 54.6 0 0 0 8.03 0c-2.17 0-2.44 0-3.3.05A5.5 5.5 0 0 0 2.8.42a3.9 3.9 0 0 0-1.42.92c-.4.4-.72.89-.92 1.42-.2.5-.33 1.1-.37 1.94A54.6 54.6 0 0 0 .03 8c0 2.17 0 2.45.04 3.3.04.85.18 1.43.38 1.94a3.96 3.96 0 0 0 2.34 2.34c.5.2 1.09.34 1.94.37.85.04 1.12.05 3.3.05 2.17 0 2.44 0 3.3-.05a5.84 5.84 0 0 0 1.94-.37 4.1 4.1 0 0 0 2.34-2.34c.2-.51.33-1.1.37-1.94.04-.85.04-1.13.04-3.3s0-2.44-.04-3.3Zm-1.44 6.54c-.03.78-.16 1.2-.27 1.48-.27.7-.82 1.25-1.52 1.52-.28.11-.7.24-1.49.28-.84.03-1.1.04-3.23.04s-2.39 0-3.23-.04a4.38 4.38 0 0 1-1.48-.28 2.46 2.46 0 0 1-.92-.6 2.49 2.49 0 0 1-.6-.92 4.4 4.4 0 0 1-.27-1.48 56.3 56.3 0 0 1-.05-3.23c0-2.14 0-2.4.05-3.23.03-.79.16-1.2.27-1.49.13-.35.33-.66.6-.92.26-.26.57-.47.92-.6.28-.1.7-.24 1.48-.27.85-.04 1.1-.05 3.24-.05 2.13 0 2.39.01 3.23.05.78.03 1.2.17 1.48.28.35.12.67.33.92.6.27.25.47.56.6.91.1.28.24.7.27 1.49.04.84.05 1.1.05 3.23s0 2.38-.05 3.23Z"/>
            <path  fill="#fff" d="M8.03 3.9a4.11 4.11 0 1 0 0 8.21 4.11 4.11 0 0 0 0-8.22Zm0 6.77a2.67 2.67 0 1 1 0-5.34 2.67 2.67 0 0 1 0 5.34Zm5.23-6.94a.96.96 0 1 1-1.92 0 .96.96 0 0 1 1.92 0Z"/>

        </symbol>
        <!-- Twitter icon -->
        <symbol id="twitter" viewBox="0 0 16 16">
             <path fill="#fff" d="M16 3.04c-.6.26-1.23.43-1.89.52.68-.4 1.2-1.05 1.44-1.82-.63.38-1.33.65-2.08.8a3.29 3.29 0 0 0-5.6 2.99A9.28 9.28 0 0 1 1.12 2.1a3.3 3.3 0 0 0 1.01 4.38 3.24 3.24 0 0 1-1.48-.4v.03a3.3 3.3 0 0 0 2.63 3.23 3.27 3.27 0 0 1-1.48.05 3.31 3.31 0 0 0 3.06 2.28A6.6 6.6 0 0 1 0 13.03a9.23 9.23 0 0 0 5.03 1.47c6.04 0 9.34-5 9.34-9.33l-.01-.43A6.54 6.54 0 0 0 16 3.04Z"/>
        </symbol>
        <!-- Facebook icon -->
        <symbol id="facebook" viewBox="0 0 16 16">
            <path fill="#fff" d="M10.66 2.66h1.47V.1C11.87.08 11 0 10 0 7.9 0 6.45 1.32 6.45 3.76V6H4.12v2.84h2.33V16H9.3V8.84h2.23L11.88 6H9.3V4.04c0-.82.22-1.38 1.36-1.38Z"/>
        </symbol>
        <!-- LinkedIn icon -->
        <symbol id="linkedin" viewBox="0 0 16 16">
             <path fill="#fff" d="M16 16v-5.87c0-2.87-.62-5.08-3.97-5.08-1.62 0-2.7.88-3.14 1.72h-.05V5.32H5.66V16h3.31v-5.3c0-1.4.27-2.74 2-2.74 1.7 0 1.72 1.59 1.72 2.83V16h3.3ZM.26 5.32h3.32V16H.26V5.32ZM1.92 0C.86 0 0 .86 0 1.92s.86 1.94 1.92 1.94 1.92-.88 1.92-1.94S2.98 0 1.92 0Z"/>
        </symbol>

        <symbol id="customer-1" viewBox="0 0 104 56">
             <path fill-rule="evenodd" d="m38 7 7 6.68-13-.01v32.4h34v-12.4l7 6.67V7H38Zm27.7 25.9L45.81 13.95H65.7V32.9Zm-6.18 8.42H37.38V19.54h1.57v20.3h20.57v1.48ZM41.8 52.06l-.83-1.7h-.68l1.2 2.25v1.3h.61v-1.3l1.2-2.25h-.68l-.82 1.7Zm3.04-1.7h.14l1.35 3.56h-.65l-.28-.83h-1.38l-.29.83h-.64l1.34-3.56h.41Zm-.65 2.24h1.04l-.52-1.5-.52 1.5Zm4.3-.59a1.82 1.82 0 0 1-.29-.45.95.95 0 0 1 .04-.83.77.77 0 0 1 .32-.3c.14-.08.3-.11.49-.11.18 0 .33.03.46.1a.77.77 0 0 1 .35.99.9.9 0 0 1-.17.25c-.07.08-.15.15-.25.22l-.24.18.7.83a1.4 1.4 0 0 0 .16-.66h.5c0 .17-.01.33-.05.49a1.52 1.52 0 0 1-.26.58l.52.62h-.68l-.2-.24a1.9 1.9 0 0 1-.37.2 1.62 1.62 0 0 1-1.16-.04.97.97 0 0 1-.4-.36.97.97 0 0 1-.05-.9c.06-.1.14-.21.24-.3.1-.1.2-.18.33-.27Zm.28.36-.07.05a.91.91 0 0 0-.2.2.6.6 0 0 0-.03.6c.05.09.11.16.2.2.09.06.2.08.32.08a.9.9 0 0 0 .57-.2l-.79-.93Zm.14-.65.22-.15a.8.8 0 0 0 .22-.2.44.44 0 0 0 .07-.25.35.35 0 0 0-.37-.34.36.36 0 0 0-.34.21.5.5 0 0 0 .01.44l.15.24.04.05Zm6.22 1.04h-.6a1.1 1.1 0 0 1-.12.4.55.55 0 0 1-.25.24.92.92 0 0 1-.42.08.75.75 0 0 1-.37-.09.7.7 0 0 1-.25-.24 1.2 1.2 0 0 1-.15-.37 2.5 2.5 0 0 1-.04-.49V52c0-.19.01-.36.05-.5.03-.15.09-.28.16-.38.07-.1.15-.17.26-.23a.8.8 0 0 1 .36-.07c.17 0 .31.03.42.08.1.06.18.14.24.25.05.11.09.24.1.4h.62c-.03-.24-.1-.45-.2-.64a1.2 1.2 0 0 0-.46-.43 1.5 1.5 0 0 0-.72-.15c-.22 0-.42.03-.6.11s-.33.2-.46.34a1.8 1.8 0 0 0-.39 1.23v.3c0 .25.03.48.1.68.07.21.16.39.29.53a1.3 1.3 0 0 0 1.04.46c.29 0 .53-.05.73-.16.2-.1.36-.25.47-.43.1-.18.17-.39.2-.62Zm3.4-.52v-.2c0-.26-.04-.5-.11-.72-.07-.2-.17-.4-.3-.54a1.28 1.28 0 0 0-.47-.34 1.47 1.47 0 0 0-.6-.12c-.22 0-.42.04-.6.12a1.42 1.42 0 0 0-.76.88 2.1 2.1 0 0 0-.11.72v.2c0 .27.03.5.1.72.08.22.18.4.31.55a1.34 1.34 0 0 0 1.06.46c.22 0 .42-.04.6-.12a1.35 1.35 0 0 0 .77-.89c.07-.21.1-.45.1-.72Zm-.62-.2v.2c0 .2-.02.37-.06.53-.03.15-.09.28-.16.38a.73.73 0 0 1-.27.24.81.81 0 0 1-.37.08.8.8 0 0 1-.36-.08.77.77 0 0 1-.27-.24c-.07-.1-.13-.23-.17-.38a2.14 2.14 0 0 1-.06-.53v-.2c0-.2.02-.37.06-.53.04-.15.1-.28.17-.38.07-.1.16-.18.27-.23.1-.06.22-.08.36-.08a.8.8 0 0 1 .36.08c.11.05.2.13.27.23.08.1.14.23.17.38.04.16.06.33.06.53Z" clip-rule="evenodd"/>
        </symbol>

        <symbol id="customer-2" viewBox="0 0 104 56">
            <path fill-rule="evenodd" d="M50.11 5.93h-.13l-.63-.02h-.46a23.94 23.94 0 0 0-1.3.03c-3.64.2-7.2 1.12-10.51 2.68l-.43.21v22.14l1.01-.34a34.33 34.33 0 0 1 10.9-1.91v2.91l-1.06.03h-.08a32.36 32.36 0 0 0-13.65 3.85V7.1a29.73 29.73 0 0 1 7.79-3.16A29.8 29.8 0 0 1 48.89 3h.43a21.1 21.1 0 0 1 5.13.65v2.87a22.62 22.62 0 0 0-3.54-.54h-.07c-.25-.02-.5-.05-.73-.05Zm5.04 2.93a31.47 31.47 0 0 0 9.67-.92 31.78 31.78 0 0 0 7.42-2.89v27.89a29.81 29.81 0 0 1-7.79 3.17c-2.4.61-4.86.93-7.33.94a22.4 22.4 0 0 1-5.57-.66V8.32a22.96 22.96 0 0 0 3.6.54Zm14.2.22-1.01.34a34.26 34.26 0 0 1-13.07 1.86l-.82-.05V34l.7.06a26.88 26.88 0 0 0 8.6-.77 27.76 27.76 0 0 0 5.16-1.87l.44-.2V9.08Z" clip-rule="evenodd"/><path d="M35.74 45.21a1.5 1.5 0 0 0-1.13-.45c-.22 0-.44.04-.65.12a1.5 1.5 0 0 0-.95 1.47v3.8c0 .26.04.53.15.77.1.2.22.37.38.51.15.13.33.22.52.27.19.05.38.08.57.08a1.6 1.6 0 0 0 1.57-1.6v-.42h-1v.33c.01.12 0 .24-.05.34a.6.6 0 0 1-.14.22.7.7 0 0 1-.41.14.5.5 0 0 1-.47-.2.9.9 0 0 1-.14-.51v-3.54c0-.2.04-.39.13-.56a.5.5 0 0 1 .48-.23.53.53 0 0 1 .44.21.8.8 0 0 1 .17.5v.34h.98v-.39a1.79 1.79 0 0 0-.45-1.2ZM41.63 45.17a1.77 1.77 0 0 0-1.72-.31c-.2.07-.37.17-.52.3-.17.16-.3.34-.39.54-.1.23-.15.48-.14.74v3.63c-.01.26.04.51.14.75.09.2.22.37.39.5.15.15.32.26.52.33a1.74 1.74 0 0 0 1.18 0 1.55 1.55 0 0 0 1.05-1.57v-3.64a1.64 1.64 0 0 0-.52-1.27Zm-.46 4.9a.66.66 0 0 1-.2.53.73.73 0 0 1-.93 0 .65.65 0 0 1-.2-.53v-3.63a.65.65 0 0 1 .2-.53.73.73 0 0 1 .93 0 .65.65 0 0 1 .2.53v3.63ZM49.37 51.7V44.8h-.96l-1.25 3.65h-.02l-1.26-3.65h-.94v6.89h.98v-4.2h.02l.96 2.97h.5l.97-2.96h.01v4.19h.99ZM54.96 45.3c-.15-.18-.34-.3-.56-.38a2.18 2.18 0 0 0-.71-.11h-1.46v6.89h.98V49h.5c.31.02.61-.04.89-.18a1.65 1.65 0 0 0 .76-1.13 4.9 4.9 0 0 0-.04-1.76 1.47 1.47 0 0 0-.36-.64Zm-.5 2.1c-.01.12-.04.24-.1.35-.06.1-.14.2-.25.24a1 1 0 0 1-.46.1h-.45v-2.35h.5c.16 0 .3.02.45.09.1.05.18.14.23.25a1 1 0 0 1 .08.38V47.4ZM59.6 44.81h-.8L57.3 51.7h.98l.29-1.48h1.33l.3 1.48h.97l-1.55-6.89Zm-.9 4.47.49-2.5h.01l.48 2.5h-.98ZM65.95 48.96h-.02l-1.48-4.15h-.94v6.89h.98v-4.14h.02L66 51.7h.92V44.8h-.98v4.15ZM71.95 44.81l-.8 2.74h-.01l-.8-2.74h-1.03l1.35 3.98v2.9h.98v-2.9l1.35-3.98h-1.04ZM33 53.64h.47v1.33h.32v-1.33h.47v-.27H33v.27ZM36.98 53.37l-.62 1.6h.34l.13-.36h.64l.13.36h.35l-.63-1.6h-.34Zm-.05.97.21-.6.22.6h-.43ZM40.9 54.38h.38v.2a.61.61 0 0 1-.38.14.4.4 0 0 1-.34-.15.67.67 0 0 1-.12-.42c0-.35.15-.53.46-.53a.34.34 0 0 1 .36.25l.32-.06c-.07-.31-.3-.47-.68-.47a.8.8 0 0 0-.56.2.78.78 0 0 0-.23.62c0 .22.06.44.2.6a.78.78 0 0 0 .61.24c.25 0 .5-.09.68-.26v-.63h-.7v.27ZM44.92 53.37h-.32v1.6h1.12v-.27h-.8v-1.33ZM48.32 53.37h-.33v1.6h.33v-1.6ZM51.64 54.44l-.66-1.07h-.31v1.6h.3v-1.04l.64 1.04h.32v-1.6h-.3v1.07ZM54.64 54.27h.8V54h-.8v-.36h.85v-.27h-1.18v1.6h1.22v-.27h-.9v-.43ZM61.91 54h-.63v-.63h-.32v1.6h.32v-.7h.63v.7h.32v-1.6h-.32V54ZM64.93 54.27h.8V54h-.8v-.36h.86v-.27h-1.18v1.6h1.21v-.27h-.89v-.43ZM69.02 54.27c.28-.05.42-.2.42-.45a.38.38 0 0 0-.15-.35.9.9 0 0 0-.47-.1h-.68v1.6h.32v-.67h.06c.07 0 .14.01.2.04.05.03.1.07.12.12l.35.5h.38l-.2-.3c-.08-.16-.2-.3-.35-.4Zm-.32-.22h-.24v-.4h.25c.11-.01.23 0 .33.03a.2.2 0 0 1-.01.33.91.91 0 0 1-.33.04ZM72.11 54.27h.8V54h-.8v-.36h.86v-.27h-1.18v1.6H73v-.27h-.89v-.43Z"/>
        </symbol>

        <symbol id="customer-3" viewBox="0 0 104 56">
            <path d="m36.81 49.22.05.01.04.03.22.2c-.18.17-.39.3-.62.4-.28.1-.58.15-.89.14-.28 0-.56-.04-.82-.13a1.67 1.67 0 0 1-1.03-.95 1.89 1.89 0 0 1 .01-1.48c.1-.21.24-.41.43-.58.19-.16.41-.29.66-.37a2.64 2.64 0 0 1 1.65-.01c.21.08.42.2.59.33l-.19.22a.18.18 0 0 1-.04.04.13.13 0 0 1-.08.02.18.18 0 0 1-.08-.03l-.1-.05-.13-.08a1.6 1.6 0 0 0-.77-.16c-.2 0-.42.04-.61.1a1.28 1.28 0 0 0-.8.72c-.07.2-.11.4-.1.6a1.3 1.3 0 0 0 .88 1.3c.17.06.36.1.56.1l.34-.02a1.35 1.35 0 0 0 .72-.3.17.17 0 0 1 .11-.05ZM43.19 48.18c0 .25-.05.5-.15.73-.1.22-.23.41-.42.57-.18.17-.4.3-.65.38-.54.17-1.14.17-1.68 0a1.94 1.94 0 0 1-.65-.38 1.67 1.67 0 0 1-.42-.57c-.2-.48-.2-1 0-1.47.1-.22.24-.41.42-.58.19-.16.4-.28.65-.36a2.69 2.69 0 0 1 1.68 0c.24.08.47.21.65.37a1.69 1.69 0 0 1 .57 1.31Zm-.58 0c0-.2-.03-.4-.1-.59a1.21 1.21 0 0 0-.77-.72c-.4-.13-.83-.13-1.22 0-.18.06-.34.16-.47.28-.13.13-.23.28-.3.44-.14.38-.14.8 0 1.18a1.2 1.2 0 0 0 .77.72c.4.12.83.12 1.22 0a1.23 1.23 0 0 0 .76-.72c.08-.19.11-.39.1-.59ZM47.54 48.8l.05.13.07-.13.07-.13 1.41-2.2.08-.06a.39.39 0 0 1 .12-.01h.41v3.56h-.5v-2.85l-1.41 2.22a.2.2 0 0 1-.08.08.25.25 0 0 1-.12.03h-.08a.25.25 0 0 1-.13-.03.2.2 0 0 1-.08-.08l-1.46-2.24V49.95h-.48V46.4h.42l.12.01c.03.01.06.04.07.07l1.44 2.2c.03.03.06.07.08.12ZM52.84 48.62v1.34h-.55V46.4h1.23c.24 0 .47.02.7.08.17.04.34.11.48.22.12.1.21.21.27.35.07.14.1.3.1.45a1 1 0 0 1-.4.81c-.15.11-.31.19-.5.24-.2.06-.43.09-.66.08h-.67Zm0-.38h.67c.15 0 .3-.02.43-.05a.94.94 0 0 0 .31-.16.67.67 0 0 0 .25-.54.6.6 0 0 0-.05-.28.69.69 0 0 0-.2-.25 1.2 1.2 0 0 0-.74-.19h-.67v1.47ZM60.26 49.96h-.43a.21.21 0 0 1-.12-.03.22.22 0 0 1-.07-.08l-.38-.87h-1.89l-.38.87a.2.2 0 0 1-.07.08.21.21 0 0 1-.13.03h-.43L58 46.4h.58l1.67 3.56Zm-2.73-1.32h1.56l-.66-1.45c-.05-.11-.09-.22-.12-.34l-.07.19-.06.15-.65 1.45ZM62.65 46.41l.08.07 2.42 2.68V46.4h.5v3.56h-.28c-.04 0-.08 0-.12-.02a.3.3 0 0 1-.09-.07l-2.4-2.68v2.77h-.5V46.4h.29l.1.01ZM69.71 48.54v1.42h-.55v-1.42l-1.53-2.14h.5a.2.2 0 0 1 .11.03l.08.08.95 1.38a2.14 2.14 0 0 1 .17.32l.07-.15.1-.17.94-1.4a.38.38 0 0 1 .07-.07.19.19 0 0 1 .12-.03h.5l-1.53 2.15ZM47.26 40.42l.73.06a20.16 20.16 0 0 0 9.06-6.7 15.86 15.86 0 0 0 3.22-9.86l-4.1-3.5a17.6 17.6 0 0 1-1.13 11.08 20.97 20.97 0 0 1-7.78 8.92Z"/><path d="m45.8 40.25.1.02c3.76-2.29 6.62-5.49 8.22-9.18 1.6-3.7 1.86-7.72.75-11.54l-5.84-5c2.36 4.1 3.31 8.7 2.74 13.25a22.42 22.42 0 0 1-5.97 12.45ZM65.63 28.04c-1 3.83-3.41 7.29-6.88 9.85-1.02.75-2.11 1.43-3.27 2a20.31 20.31 0 0 0 7.6-3.66A16.62 16.62 0 0 0 68 30.07l-2.37-2.03Z"/><path d="m64.7 27.48-3.38-2.89a16.5 16.5 0 0 1-3.17 9.31 20.56 20.56 0 0 1-8.26 6.64h.01c.76 0 1.52-.03 2.27-.11a20.91 20.91 0 0 0 8.17-5.13 16.8 16.8 0 0 0 4.35-7.82ZM46.29 12.45 42.26 9a18.99 18.99 0 0 0-8.89 6A14.78 14.78 0 0 0 30 24.23a14.94 14.94 0 0 0 4.08 10.05c2.63 2.87 6.3 4.9 10.44 5.79 3.7-3.85 5.86-8.6 6.18-13.57.31-4.96-1.23-9.89-4.41-14.05ZM74 26.95c-.01-4.33-2.03-8.47-5.6-11.53a20.92 20.92 0 0 0-13.5-4.79c-2.33 0-4.65.37-6.83 1.09l24.65 21.07A14.09 14.09 0 0 0 74 26.95Z"/>
        </symbol>

        <symbol id="customer-4" viewBox="0 0 104 56">
            <path d="M24.08 21.52c-2.39 0-4.32 1.74-4.32 3.9 0 2.15 1.93 3.89 4.32 3.89 2.38 0 4.32-1.74 4.32-3.9 0-2.15-1.94-3.9-4.32-3.9ZM55.96 20.27c0-2.98-1.32-5.85-3.67-7.96A13.25 13.25 0 0 0 43.46 9c-3.31 0-6.49 1.2-8.83 3.3a10.77 10.77 0 0 0-3.67 7.97v16.48s25-2.51 25-16.47ZM11 42.15a7.5 7.5 0 0 0 2.55 5.55A9.23 9.23 0 0 0 19.7 50c2.3 0 4.51-.83 6.14-2.3a7.5 7.5 0 0 0 2.56-5.54V30.69S11 32.44 11 42.15Zm8.7 2.06c-.45 0-.9-.12-1.27-.35a2.12 2.12 0 0 1-.84-.92 1.87 1.87 0 0 1-.13-1.19 2 2 0 0 1 .63-1.05c.32-.29.72-.48 1.16-.56.45-.08.9-.04 1.32.12.42.15.77.42 1.02.75a1.91 1.91 0 0 1-.28 2.6c-.2.2-.46.35-.74.45-.27.1-.57.16-.87.16v-.01ZM35.6 40.52v4.26h-.87v-4.27h.88Zm1.7 1.82v.68h-1.93v-.68h1.94Zm.21-1.83v.7h-2.14v-.7h2.14Zm4.02 2.04v.2c0 .32-.05.62-.13.87-.1.26-.22.48-.38.66-.16.18-.35.32-.57.42-.22.1-.47.14-.74.14a1.65 1.65 0 0 1-1.31-.56c-.16-.18-.28-.4-.37-.66a2.7 2.7 0 0 1-.14-.87v-.2c0-.33.05-.62.14-.87.08-.26.2-.48.37-.66.16-.19.35-.32.57-.42.22-.1.47-.14.74-.14s.51.04.73.14c.23.1.42.23.58.42.16.18.28.4.37.66.1.25.14.54.14.87Zm-.9.2v-.2c0-.23-.01-.43-.05-.6a1.3 1.3 0 0 0-.18-.44.78.78 0 0 0-.7-.35.8.8 0 0 0-.69.35c-.07.12-.13.26-.17.43-.04.18-.06.38-.06.6v.21c0 .23.02.42.06.6.04.17.1.32.18.43.08.12.18.21.3.27.11.06.24.1.4.1.14 0 .27-.04.39-.1a.79.79 0 0 0 .29-.27c.08-.11.14-.26.18-.43.04-.18.06-.38.06-.6Zm3.75.91a.56.56 0 0 0-.03-.2.39.39 0 0 0-.13-.17l-.25-.16c-.11-.05-.25-.1-.43-.15l-.55-.21a2.26 2.26 0 0 1-.46-.28c-.13-.1-.23-.23-.3-.36a1 1 0 0 1-.12-.49 1 1 0 0 1 .12-.48c.08-.15.19-.27.33-.38.14-.1.3-.18.5-.24a2.25 2.25 0 0 1 1.46.09c.23.11.41.26.54.46.13.2.2.42.2.68h-.88a.66.66 0 0 0-.08-.33.54.54 0 0 0-.23-.22.84.84 0 0 0-.4-.09.9.9 0 0 0-.37.07.5.5 0 0 0-.23.19.45.45 0 0 0-.08.26c0 .07.02.13.05.2l.17.16a3.86 3.86 0 0 0 .63.28c.23.06.44.14.61.23.18.09.33.19.45.3a1.1 1.1 0 0 1 .36.84c0 .18-.04.35-.1.5-.08.14-.19.27-.32.37-.14.1-.3.18-.5.23a2.37 2.37 0 0 1-1.81-.26c-.17-.11-.3-.26-.4-.43-.1-.18-.15-.39-.15-.63h.88c0 .14.02.25.06.34.05.1.1.17.18.22.07.06.16.1.27.13.1.02.22.04.34.04.15 0 .28-.03.38-.07a.46.46 0 0 0 .29-.44Zm3.38-3.14v4.26h-.87v-4.27h.87Zm1.32 0v.68H45.6v-.69h3.48Zm3.36 3.58v.68h-2.27v-.68h2.27Zm-1.98-3.59v4.27h-.88v-4.27h.88Zm1.68 1.74v.67h-1.97v-.67h1.97Zm.3-1.73v.68h-2.27v-.69h2.27Zm.51 0h1.6c.32 0 .6.04.83.14.24.1.42.24.55.44.13.19.19.42.19.7 0 .23-.04.43-.12.59-.07.16-.18.3-.32.4-.14.11-.3.2-.5.27l-.27.14h-1.38v-.68h1.02a.8.8 0 0 0 .38-.09c.1-.05.18-.13.23-.22a.7.7 0 0 0 .08-.34.77.77 0 0 0-.08-.36.51.51 0 0 0-.23-.23.85.85 0 0 0-.39-.08h-.7v3.58h-.89v-4.27Zm2.39 4.26-.98-1.9h.93l.99 1.86v.04h-.94Zm4.61-1.52h-1.09v-.69h1.1a.9.9 0 0 0 .4-.08c.1-.05.18-.13.23-.23.05-.1.08-.21.08-.34a.86.86 0 0 0-.08-.35.6.6 0 0 0-.23-.27.76.76 0 0 0-.4-.1h-.8v3.58h-.87v-4.27h1.66c.34 0 .62.07.86.19a1.3 1.3 0 0 1 .74 1.22c0 .27-.06.5-.19.71-.13.2-.31.36-.55.47-.24.1-.52.16-.86.16Zm5.07.84v.68h-2.27v-.68h2.27Zm-1.98-3.59v4.27h-.88v-4.27h.88Zm1.68 1.74v.67h-1.97v-.67h1.97Zm.3-1.73v.68h-2.27v-.69h2.27Zm2.48 0v4.26h-.88v-4.27h.88Zm1.31 0v.68h-3.48v-.69h3.48Zm3.36 3.58v.68H69.9v-.68h2.27ZM70.2 40.5v4.27h-.88v-4.27h.88Zm1.69 1.74v.67H69.9v-.67h1.98Zm.3-1.73v.68H69.9v-.69h2.27Zm.5 0h1.6c.32 0 .6.04.84.14.23.1.42.24.54.44.13.19.2.42.2.7 0 .23-.05.43-.12.59-.08.16-.19.3-.33.4-.14.11-.3.2-.49.27l-.28.14h-1.38v-.68h1.02a.8.8 0 0 0 .39-.09c.1-.05.18-.13.23-.22a.7.7 0 0 0 .08-.34.77.77 0 0 0-.08-.36.51.51 0 0 0-.23-.23.85.85 0 0 0-.4-.08h-.7v3.58h-.88v-4.27Zm2.4 4.26-.98-1.9h.93l.98 1.86v.04h-.94Zm3.67-1.12a.56.56 0 0 0-.03-.2.39.39 0 0 0-.13-.17l-.25-.16c-.11-.05-.25-.1-.43-.15l-.55-.21a2.26 2.26 0 0 1-.45-.28 1 1 0 0 1-.42-.85 1 1 0 0 1 .11-.48c.08-.15.19-.27.33-.38.14-.1.3-.18.5-.24a2.25 2.25 0 0 1 1.46.09c.23.11.41.26.54.46.13.2.2.42.2.68h-.88a.66.66 0 0 0-.07-.33.54.54 0 0 0-.24-.22.84.84 0 0 0-.4-.09.9.9 0 0 0-.37.07.5.5 0 0 0-.23.19.45.45 0 0 0-.08.26c0 .07.02.13.06.2.03.05.09.1.16.16a3.86 3.86 0 0 0 .63.28c.23.06.44.14.61.23.18.09.33.19.45.3a1.1 1.1 0 0 1 .36.84c0 .18-.04.35-.1.5-.08.14-.18.27-.32.37-.14.1-.3.18-.5.23a2.37 2.37 0 0 1-1.81-.26c-.17-.11-.3-.26-.4-.43-.1-.18-.15-.39-.15-.63h.88c0 .14.02.25.07.34.04.1.1.17.17.22.07.06.16.1.27.13.1.02.22.04.34.04.16 0 .28-.03.38-.07a.46.46 0 0 0 .3-.44Z"/>
        </symbol>

        <symbol id="customer-5" viewBox="0 0 104 56">
            <path d="M26.8 44.37c.24.28.37.62.36.97.01.23-.03.46-.13.67-.1.21-.25.4-.44.55-.48.33-1.07.49-1.66.45H22v-6.13h2.87c.56-.04 1.12.1 1.58.4.19.14.33.32.43.52.1.2.14.41.13.63.01.34-.1.67-.33.94-.23.24-.53.41-.88.48.4.06.74.25 1 .52Zm-3.44-.92h1.23c.27.02.55-.06.77-.2.1-.08.17-.17.21-.28.05-.1.07-.21.06-.33a.69.69 0 0 0-.06-.32.75.75 0 0 0-.2-.27 1.28 1.28 0 0 0-.8-.21h-1.2v1.6Zm2.12 2.35c.1-.08.18-.17.23-.28a.7.7 0 0 0 .06-.34.7.7 0 0 0-.06-.35.78.78 0 0 0-.23-.28 1.37 1.37 0 0 0-.83-.22h-1.29V46h1.3c.3.02.58-.06.82-.21ZM32.65 47l-1.6-2.39h-.6v2.4h-1.37v-6.13h2.6c.65-.04 1.3.14 1.8.52.37.33.59.77.62 1.23.04.47-.11.93-.42 1.3-.32.34-.76.56-1.24.63l1.7 2.45h-1.5Zm-2.2-3.22h1.13c.78 0 1.17-.31 1.17-.93a.83.83 0 0 0-.07-.37.9.9 0 0 0-.22-.32 1.3 1.3 0 0 0-.88-.25h-1.14l.02 1.87ZM40.14 45.78h-2.73L36.93 47h-1.44L38 40.95h1.55l2.5 6.06h-1.43l-.48-1.23Zm-.36-.93-1-2.6-1 2.6h2ZM49.52 47h-1.36l-3.05-4.16V47h-1.36v-6.13h1.36l3.05 4.2v-4.2h1.36V47ZM57.29 45.54c-.28.46-.71.84-1.23 1.08-.6.27-1.25.4-1.91.39h-2.43v-6.13h2.43c.66-.02 1.31.11 1.9.37.53.24.96.61 1.24 1.07a3.28 3.28 0 0 1 0 3.22Zm-1.56-.15c.4-.4.6-.92.6-1.46 0-.54-.2-1.05-.6-1.46a2.54 2.54 0 0 0-1.7-.52h-.95v3.97h.95c.62.03 1.23-.16 1.7-.53ZM41 6.77s17.56 5.97 17.19 14.6V36S40.64 30.02 41 21.38V6.77ZM73.84 32.57A25.77 25.77 0 0 1 85 28.87v-4.58a22.54 22.54 0 0 0-11.16 8.28Z"/><path d="M71.85 33.95A23.19 23.19 0 0 1 85 23.33V10.15s-25.02 8.5-24.49 20.81v20.8s1.12-.37 2.87-1.09c0-.66 0-1.33.08-2 .52-5.72 3.53-11.01 8.39-14.72Z"/><path d="M69.47 41.68c.13-1.45.42-2.87.87-4.26a19.1 19.1 0 0 0-5.3 12.56 75.86 75.86 0 0 0 4.82-2.28 19.43 19.43 0 0 1-.4-6.02ZM70.46 41.75c-.17 1.82-.06 3.66.31 5.46C77.61 43.53 85.3 37.84 85 30.96v-.6c-4.88.5-9.45 2.42-13 5.47a18.82 18.82 0 0 0-1.53 5.92Z"/>
        </symbol>

        <symbol id="customer-6" viewBox="0 0 104 56">
            <path d="M53.53 27.44a2.95 2.95 0 0 1-.6-1.99v-2.89c0-.88.2-1.55.6-2.02.4-.46 1.09-.68 2.07-.68.92 0 1.57.2 1.95.58.42.5.63 1.12.58 1.73v.68H56.5v-.69c0-.22-.01-.45-.05-.67a.65.65 0 0 0-.23-.4.95.95 0 0 0-.6-.15 1 1 0 0 0-.63.16.77.77 0 0 0-.27.44c-.05.24-.07.48-.06.71v3.51c-.03.34.04.68.2.98.09.1.2.2.34.24a.9.9 0 0 0 .42.06.9.9 0 0 0 .58-.16.7.7 0 0 0 .25-.43c.04-.23.05-.46.05-.7v-.71h1.64v.65c.05.64-.15 1.28-.57 1.81-.37.43-1.02.65-1.96.65-.95 0-1.67-.23-2.07-.7ZM60.38 27.47c-.42-.45-.63-1.1-.63-1.97v-3.04c0-.85.21-1.5.63-1.94.41-.45 1.1-.66 2.08-.66.97 0 1.66.22 2.07.66.42.44.63 1.09.63 1.94v3.04c0 .86-.21 1.52-.63 1.97-.43.45-1.11.68-2.07.68-.96 0-1.66-.23-2.08-.68Zm2.85-.73c.14-.28.21-.59.2-.9v-3.71c.01-.3-.05-.61-.2-.89a.78.78 0 0 0-.34-.24.9.9 0 0 0-.43-.05.92.92 0 0 0-.43.05.79.79 0 0 0-.34.24c-.15.28-.22.58-.2.89v3.73c-.02.31.05.62.2.9.1.1.21.17.34.22a1.16 1.16 0 0 0 .85 0c.13-.05.25-.12.35-.22v-.02ZM67.14 19.95h1.77l1.33 5.6 1.36-5.6h1.72l.18 8.09h-1.28l-.13-5.63-1.32 5.63h-1.02l-1.36-5.65-.13 5.65h-1.28l.16-8.1ZM75.48 19.95h2.76c1.59 0 2.38.76 2.38 2.3 0 1.46-.83 2.2-2.5 2.2h-.95v3.59h-1.7l.01-8.1Zm2.36 3.45c.17.02.34 0 .5-.04.16-.04.31-.11.44-.21.19-.28.28-.6.24-.92 0-.24-.02-.49-.08-.73a.6.6 0 0 0-.13-.22.7.7 0 0 0-.21-.16c-.24-.1-.5-.15-.76-.13h-.66v2.41h.66ZM83.08 19.95h1.83l1.87 8.09H85.2l-.37-1.87h-1.64l-.38 1.87h-1.6l1.87-8.1Zm1.56 5.28-.64-3.4-.63 3.4h1.27ZM88.3 19.95h1.19l2.28 4.61v-4.61h1.41v8.09h-1.13l-2.3-4.82v4.82H88.3v-8.1ZM96.5 24.95l-1.9-5h1.6l1.15 3.22 1.09-3.21H100l-1.87 5v3.08h-1.64v-3.09ZM56.16 31.57V32h-1.4v3.28h-.57V32h-1.4v-.43h3.37ZM60.51 35.28h-.45a.2.2 0 0 1-.12-.03.2.2 0 0 1-.08-.09l-.4-.88h-1.93l-.4.88a.24.24 0 0 1-.06.1.2.2 0 0 1-.13.04h-.45l1.7-3.71h.6l1.72 3.7Zm-2.82-1.37h1.61l-.68-1.51a2.7 2.7 0 0 1-.13-.35l-.06.2-.06.15-.68 1.5ZM63.45 34.92h.32a1.93 1.93 0 0 0 .51-.11l.23-.1v-.83H63.78a.13.13 0 0 1-.04-.03.09.09 0 0 1-.03-.03V33.5h1.32v1.42a2.57 2.57 0 0 1-1.15.38c-.16.02-.33.03-.5.03-.29 0-.58-.05-.85-.14a2.1 2.1 0 0 1-.68-.39 1.8 1.8 0 0 1-.44-.59c-.1-.24-.16-.5-.16-.77a1.7 1.7 0 0 1 .6-1.36c.19-.17.42-.3.67-.39a2.86 2.86 0 0 1 1.39-.1 2.33 2.33 0 0 1 .75.24c.1.06.2.12.3.2l-.17.22a.14.14 0 0 1-.06.05.17.17 0 0 1-.07.02.22.22 0 0 1-.11-.03 2.1 2.1 0 0 1-.17-.08 2.14 2.14 0 0 0-.97-.21c-.22-.01-.45.02-.66.1a1.3 1.3 0 0 0-.82.76c-.15.4-.15.82 0 1.23.08.17.2.33.35.46a1.45 1.45 0 0 0 1.17.37ZM68.87 34.86h1.86v.42h-2.42v-3.7h.58l-.02 3.28ZM72.67 35.28h-.59v-3.7h.59v3.7ZM74.83 31.6c.04 0 .07.03.1.06l2.48 2.8V31.56h.5v3.72h-.29c-.04 0-.08 0-.12-.02a.33.33 0 0 1-.1-.07l-2.48-2.8v2.89h-.49v-3.7h.3l.1.01ZM82.2 31.57v.41h-2.06v1.23h1.67v.4h-1.67v1.26h2.06v.4h-2.66v-3.7h2.66ZM21.2 8.66l25.85 6.33v22.2L21.2 30.86V8.66Zm-1.66-1.9v25.18l29.16 7.14V13.92L19.54 6.77Z"/><path d="M35.17 50.77 6 43.6V18.45l29.17 7.15v25.17Z"/><path d="m20.02 8.37 25.52 6.26-10.86 9.36-25.51-6.25 10.85-9.37Zm-.48-1.6L6 18.45l29.17 7.15L48.7 13.92 19.54 6.77ZM36.8 49.35 48.7 39.1l-11.9-2.92v13.18Z"/>
        </symbol>

        <symbol id="modal-close" viewBox="0 0 8 8">
            <path d="M8 .8 7.2 0 4 3.2.8 0 0 .8 3.2 4 0 7.2l.8.8L4 4.8 7.2 8l.8-.8L4.8 4 8 .8Z"/>
        </symbol>

        <symbol id="submit" viewBox="0 0 24 24">
            <path d="M24 2L0 13.25L7.66994 15.6172L19.5 6.375L10.5017 16.4913L10.509 16.4936L10.5 16.4913V22L14.8013 17.8183L20.2501 19.5L24 2Z" fill="white"/>
        </symbol>

        <symbol id="person" viewBox="0 0 18 18">
            <path  d="M9 9a3 3 0 1 0 0-6 3 3 0 0 0 0 6Zm0 1.5c-2 0-6 1-6 3v.75c0 .41.34.75.75.75h10.5c.41 0 .75-.34.75-.75v-.75c0-2-4-3-6-3Z"/>
        </symbol>

        <symbol id="phone" viewBox="0 0 18 24">
            <path d="m14.73 13.87-1.84-.21c-.44-.06-.88.1-1.19.4l-1.33 1.34a10.89 10.89 0 0 1-4.77-4.77l1.34-1.34c.31-.31.46-.74.41-1.19l-.2-1.82A1.45 1.45 0 0 0 5.7 5H4.45c-.82 0-1.5.68-1.45 1.5A12.3 12.3 0 0 0 14.5 18c.82.05 1.5-.63 1.5-1.45V15.3c0-.73-.54-1.35-1.27-1.43Z"/>
        </symbol>

        <symbol id="email" viewBox="0 0 18 24">
            <path d="M15 6H3c-.83 0-1.5.67-1.5 1.5v9c0 .82.67 1.5 1.5 1.5h12c.82 0 1.5-.68 1.5-1.5v-9c0-.83-.68-1.5-1.5-1.5Zm-.3 3.19L9.4 12.5a.76.76 0 0 1-.8 0L3.3 9.2a.64.64 0 1 1 .68-1.08L9 11.25l5.03-3.14a.64.64 0 1 1 .67 1.08Z"/>
        </symbol>

        <symbol id="check-mark" viewBox="0 0 42 32">
            <path fill="#fff" style="fill: var(--color1); stroke: var(--color1)" stroke="#fff" stroke-linejoin="miter" stroke-linecap="butt" stroke-miterlimit="4" stroke-width="0.64" d="M6.262 15.206l-0.221-0.211-0.221 0.208-3.085 2.925 0.243 0.234 11.408 10.88 0.221-0.211 24.256-23.139-0.243-0.23-3.043-2.902-0.221 0.211-20.97 19.987-8.125-7.75z"></path>
        </symbol>
    </defs>
</svg>
